<?xml version="1.0" standalone="no"?>
<!DOCTYPE svg PUBLIC "-//W3C//DTD SVG 20010904//EN"
 "http://www.w3.org/TR/2001/REC-SVG-20010904/DTD/svg10.dtd">
<svg version="1.0" xmlns="http://www.w3.org/2000/svg"
 width="1280.000000pt" height="1280.000000pt" viewBox="0 0 1280.000000 1280.000000"
 preserveAspectRatio="xMidYMid meet">

<g transform="translate(0.000000,1280.000000) scale(0.100000,-0.100000)"
fill="#000000" stroke="none">
<path d="M0 6400 l0 -6400 6400 0 6400 0 0 6400 0 6400 -6400 0 -6400 0 0
-6400z m5721 4451 c9 -29 8 -43 -1 -60 -11 -22 -12 -22 -31 -5 -15 13 -18 25
-14 48 16 78 27 81 46 17z m739 -166 c24 -71 22 -96 -11 -135 l-21 -25 -25 29
c-20 24 -24 37 -20 66 5 36 41 130 51 130 2 0 14 -29 26 -65z m1045 33 c-5
-25 -29 -221 -40 -328 -4 -36 -13 -74 -20 -86 -8 -12 -44 -34 -82 -49 -37 -16
-73 -33 -79 -39 -16 -15 -103 -382 -116 -485 -12 -102 -4 -213 19 -252 31 -52
96 -50 278 8 113 36 242 94 353 158 70 39 70 34 3 -38 -94 -100 -169 -232
-211 -375 -26 -86 -21 -115 23 -143 29 -18 44 -20 152 -16 97 4 144 12 245 40
133 38 358 114 452 153 59 25 99 32 63 12 -18 -10 -540 -357 -758 -504 l-88
-59 6 -40 c15 -98 25 -206 25 -273 0 -97 15 -123 87 -157 202 -95 351 -176
548 -298 250 -155 264 -171 310 -341 59 -221 113 -333 203 -424 31 -32 154
-140 272 -241 118 -101 229 -195 245 -210 17 -14 59 -51 95 -81 177 -150 467
-407 517 -459 94 -98 19 -303 -179 -486 -63 -58 -75 -65 -111 -65 -40 0 -46 5
-185 148 -89 90 -146 142 -149 134 -8 -22 35 -128 117 -287 90 -174 100 -217
75 -316 -25 -95 -61 -199 -74 -212 -24 -24 -186 -12 -321 23 -75 19 -161 34
-216 37 -96 6 -148 -6 -549 -123 -193 -57 -206 -71 -127 -131 88 -67 151 -68
297 -7 332 139 338 141 461 124 107 -14 263 -54 315 -80 25 -13 39 -27 39 -40
0 -80 -192 -435 -411 -760 -111 -164 -174 -240 -187 -225 -5 6 -29 40 -55 76
-54 77 -142 160 -221 207 -173 105 -516 207 -721 214 l-79 3 3 -160 c2 -140
-1 -176 -24 -289 -51 -255 -159 -465 -345 -674 -63 -71 -86 -80 -76 -29 17 78
36 248 36 317 0 166 -56 403 -95 401 -6 -1 -13 -58 -17 -138 -4 -76 -14 -181
-22 -233 -8 -52 -18 -117 -22 -145 -9 -64 -74 -296 -113 -403 -80 -217 -229
-453 -366 -580 -76 -71 -142 -122 -159 -122 -6 0 -40 56 -75 125 -145 286
-343 560 -566 780 -155 153 -275 259 -395 349 -63 47 -119 89 -125 94 -36 27
-303 197 -367 233 -43 23 -76 44 -74 47 8 7 382 -128 575 -208 41 -16 78 -30
82 -30 5 0 9 49 9 110 0 60 5 132 11 159 26 125 124 186 325 206 87 8 260 -10
479 -52 166 -31 204 -35 300 -31 97 4 118 8 180 37 84 39 137 87 174 161 63
125 64 213 5 410 -46 155 -45 211 7 249 19 14 53 44 77 67 37 36 42 47 42 85
-1 38 -17 99 -44 161 -6 13 5 25 47 51 64 41 107 93 107 130 0 14 -16 76 -35
137 -64 204 -52 220 190 280 72 18 136 37 143 42 17 14 15 110 -2 153 -23 55
-64 112 -370 525 -39 52 -87 128 -108 168 -47 91 -49 136 -12 348 19 111 24
168 20 224 -3 41 -10 138 -15 215 -13 191 -46 327 -113 458 -81 161 -265 360
-439 473 -298 196 -724 330 -1153 364 -166 13 -490 13 -631 0 -339 -32 -658
-114 -912 -235 -121 -58 -253 -138 -253 -155 0 -7 104 -10 303 -10 222 0 306
-3 315 -12 9 -9 12 -256 12 -1050 0 -622 4 -1038 9 -1038 12 0 73 69 420 470
72 83 135 154 141 160 3 3 75 86 159 185 242 283 296 334 417 394 118 58 253
66 367 22 78 -30 154 -106 203 -202 l39 -74 0 -145 c0 -123 -4 -157 -24 -225
-13 -44 -32 -96 -42 -115 l-18 -35 -1 62 c0 94 -30 162 -96 222 -127 117 -312
118 -482 5 -31 -20 -117 -96 -191 -169 -349 -339 -431 -405 -630 -504 -95 -48
-95 -56 1 -76 187 -40 411 -202 588 -426 69 -88 83 -99 95 -79 8 14 206 161
225 168 8 3 36 20 61 37 25 17 101 55 169 84 118 51 129 54 244 61 141 10 238
-1 344 -36 194 -64 336 -168 447 -324 66 -94 95 -152 131 -260 25 -77 28 -98
28 -230 1 -158 -16 -244 -69 -365 -155 -350 -558 -566 -933 -501 -244 43 -423
162 -587 391 -89 124 -345 557 -345 582 0 14 291 303 305 303 7 0 45 -46 86
-101 186 -256 227 -309 294 -389 155 -183 291 -286 455 -345 215 -76 470 -18
621 143 104 110 138 199 139 358 0 236 -143 465 -392 628 -135 88 -335 143
-483 133 -173 -12 -385 -94 -554 -215 -194 -139 -311 -247 -572 -529 -197
-211 -423 -379 -620 -457 -48 -19 -134 -48 -190 -63 -90 -24 -123 -27 -251
-28 -82 0 -148 -4 -148 -9 0 -15 69 -185 100 -246 50 -100 91 -151 236 -300
77 -80 152 -165 166 -190 78 -135 76 -279 -6 -494 -14 -37 -26 -74 -26 -80 0
-7 48 -29 108 -51 477 -172 818 -368 1131 -650 45 -40 216 -235 272 -310 119
-157 243 -375 317 -555 63 -153 128 -350 116 -350 -2 0 -22 37 -45 83 -216
432 -555 838 -939 1123 -338 251 -697 417 -1187 550 -54 14 -103 30 -110 36
-15 12 -2 53 70 218 154 354 153 445 -4 652 -102 135 -184 332 -208 502 -6 38
-14 72 -18 77 -4 4 -53 19 -108 34 -54 14 -129 42 -165 61 -255 134 -438 395
-481 683 -14 102 -6 290 17 375 53 200 177 387 333 504 91 69 128 91 222 132
63 28 198 64 207 56 2 -2 -40 -18 -92 -35 -251 -83 -392 -187 -522 -384 -66
-100 -90 -157 -120 -288 -59 -255 -17 -507 121 -720 150 -232 369 -364 655
-393 91 -10 127 -10 132 -2 9 13 11 1787 2 1810 -4 12 -21 16 -58 17 -47 1
-48 2 -18 9 18 4 42 6 52 3 14 -4 21 1 25 18 3 13 4 377 3 809 l-3 785 -160 5
-160 5 0 45 c0 42 2 45 29 48 23 3 56 30 135 111 164 167 400 312 676 416 143
54 257 81 440 105 229 31 228 31 219 39 -14 13 -77 31 -146 43 -35 6 -205 13
-378 17 l-315 6 105 51 c258 125 485 172 865 181 201 5 250 2 384 -16 317 -45
478 -92 639 -189 30 -17 29 0 -3 55 -29 48 -124 110 -255 164 -92 39 -278 86
-374 95 -39 3 -77 10 -85 14 -20 11 30 18 214 31 88 6 161 12 163 14 2 2 -1
82 -7 177 -6 95 -15 259 -21 363 -11 207 -30 494 -35 538 -5 38 11 25 19 -15
17 -89 106 -364 163 -503 109 -268 192 -369 281 -341 24 8 119 140 159 221 42
84 63 153 83 269 l17 101 7 -60 c31 -264 106 -522 178 -610 48 -58 103 -48
219 41 30 23 80 69 111 103 50 54 254 301 271 327 3 6 -3 46 -14 89 -10 42
-19 85 -19 94 0 15 307 320 323 321 4 0 5 -10 2 -22z m-649 -555 c-3 -10 -21
-83 -40 -163 -30 -126 -38 -148 -63 -167 -26 -21 -28 -22 -31 -5 -2 10 2 38 7
62 5 25 7 47 4 50 -3 3 -22 -15 -44 -39 -25 -28 -44 -41 -54 -37 -28 10 -16
49 33 105 26 31 63 76 82 101 75 97 119 136 106 93z m-693 -50 c17 -87 19
-152 4 -173 l-14 -21 -7 23 -7 23 -11 -22 c-14 -28 -25 -29 -33 -4 -6 20 44
201 56 201 3 0 9 -12 12 -27z m1997 -219 c0 -10 -67 -110 -86 -128 -19 -19
-94 -22 -94 -3 0 6 5 28 10 47 9 32 17 38 77 62 71 27 93 32 93 22z m-730
-124 c-11 -41 -27 -109 -36 -150 -18 -84 -27 -100 -57 -100 -18 0 -19 4 -13
50 4 28 9 57 12 65 12 30 -14 14 -50 -30 -21 -25 -42 -45 -47 -45 -5 0 -9 15
-9 33 0 36 3 41 135 203 69 84 80 94 83 73 1 -13 -7 -58 -18 -99z m1290 -377
c0 -4 -14 -22 -32 -40 -42 -43 -82 -45 -71 -3 7 25 103 65 103 43z m-880 -102
c0 -13 -118 -161 -128 -161 -17 0 -21 13 -11 33 10 17 9 19 -10 14 -15 -4 -21
-1 -21 11 0 28 12 38 85 75 76 39 85 42 85 28z m-301 -6058 c15 -54 14 -70 -8
-76 -11 -3 -32 -30 -49 -63 -57 -112 -173 -245 -277 -319 -79 -56 -122 -77
-70 -34 126 103 236 241 291 365 22 49 24 62 14 78 -11 18 -8 24 26 53 22 18
44 33 51 33 7 0 17 -17 22 -37z m96 -213 l25 -10 -2 -282 -3 -283 -47 -3 -48
-3 0 289 c0 159 3 292 7 295 9 10 38 9 68 -3z m-110 -345 l-1 -230 -52 -3 -52
-3 0 229 c0 126 3 232 7 236 4 4 28 6 53 4 l45 -3 0 -230z m-161 109 c14 -5
16 -30 16 -175 l0 -169 -50 0 -50 0 0 175 0 175 34 0 c19 0 41 -3 50 -6z
m-124 -230 l0 -115 -52 3 -53 3 -3 98 c-2 54 -1 105 2 113 4 9 22 14 56 14
l50 0 0 -116z m-145 -59 l0 -50 -50 0 -50 0 -3 39 c-5 60 1 68 55 64 l48 -3 0
-50z m-515 -204 c0 -6 -20 -24 -45 -42 -25 -18 -75 -67 -111 -108 -54 -63 -62
-77 -50 -86 9 -5 34 -21 56 -35 54 -32 77 -84 101 -222 10 -62 22 -125 25
-140 5 -24 2 -28 -33 -38 -55 -17 -86 -10 -94 20 -4 14 -7 70 -8 125 -2 154
-33 235 -91 235 -24 0 -32 -7 -50 -46 -20 -41 -22 -57 -19 -182 l4 -137 -25
-12 c-14 -6 -43 -15 -64 -19 l-39 -7 7 94 c11 148 8 501 -3 532 -16 41 -14 44
20 56 43 15 96 14 102 -1 2 -7 2 -61 -1 -120 -3 -76 -2 -108 6 -108 6 0 37 35
68 77 32 43 78 99 102 125 42 45 48 48 93 48 27 0 49 -4 49 -9z m971 -1 c50
-14 80 -50 86 -102 7 -61 -23 -98 -78 -98 -32 0 -42 5 -50 24 -9 19 -8 29 5
47 21 31 20 45 -4 69 -28 28 -81 26 -118 -5 -39 -33 -58 -84 -73 -191 -21
-160 7 -284 75 -325 39 -24 121 -26 130 -3 3 9 6 60 6 114 0 108 -1 110 -73
110 -37 0 -31 20 14 43 24 12 52 17 99 15 l65 -3 5 -155 c3 -85 4 -160 2 -166
-5 -18 -68 -43 -138 -54 -133 -21 -229 22 -280 127 -27 55 -29 65 -28 188 0
139 17 209 65 280 53 77 182 115 290 85z m-833 -82 c7 -7 12 -24 12 -39 0 -24
-5 -28 -40 -34 -21 -4 -44 -4 -50 0 -13 8 -13 41 0 66 12 22 59 26 78 7z m173
-174 c16 -14 20 -14 48 0 58 30 144 12 176 -38 14 -22 16 -48 14 -168 -2 -79
0 -162 4 -185 9 -42 8 -43 -18 -43 -30 0 -65 16 -82 39 -17 22 -15 113 2 186
19 78 19 125 -1 153 -20 29 -74 30 -100 1 -17 -19 -19 -38 -19 -180 0 -177 -3
-186 -65 -191 -31 -3 -35 0 -34 20 0 12 1 112 2 222 l2 200 27 0 c14 0 34 -7
44 -16z m-158 -6 c-2 -5 -3 -102 -3 -218 l0 -210 -24 0 c-14 0 -36 4 -51 10
l-26 10 2 167 c1 93 0 181 -2 198 -3 23 1 32 21 42 26 14 87 14 83 1z m-313
-671 c0 -32 2 -33 32 -29 42 6 58 -17 58 -85 0 -46 -3 -53 -20 -53 -18 0 -20
7 -20 56 0 52 -1 55 -22 52 -20 -3 -23 -10 -26 -55 -3 -45 -6 -53 -23 -53 -18
0 -19 8 -19 100 0 93 1 100 20 100 16 0 20 -7 20 -33z m490 -52 c0 -50 4 -85
10 -85 6 0 10 -7 10 -15 0 -20 -46 -20 -54 1 -3 9 -6 54 -6 100 0 77 2 84 20
84 18 0 20 -7 20 -85z m1520 -14 l0 -99 -54 -1 c-64 0 -81 14 -81 69 0 51 20
73 62 68 30 -4 33 -2 33 22 0 30 7 40 27 40 10 0 13 -23 13 -99z m-3262 49 l3
-33 39 38 c50 49 71 37 29 -15 -35 -43 -36 -38 21 -112 l22 -28 -23 0 c-13 0
-35 15 -55 38 l-33 37 -1 -37 c0 -31 -4 -38 -20 -38 -18 0 -20 7 -20 88 0 49
3 92 7 96 14 14 28 -1 31 -34z m172 -55 c0 -88 -1 -95 -20 -95 -18 0 -20 7
-20 88 0 90 3 102 27 102 10 0 13 -23 13 -95z m122 40 c18 -30 36 -55 40 -55
5 0 8 25 8 55 0 42 3 55 15 55 12 0 15 -17 15 -95 0 -86 -2 -95 -19 -95 -12 0
-30 20 -52 55 -18 30 -37 55 -41 55 -4 0 -8 -25 -8 -55 0 -42 -3 -55 -15 -55
-12 0 -15 17 -15 95 0 87 2 95 19 95 13 0 31 -18 53 -55z m365 33 c24 -20 14
-30 -22 -24 -49 10 -72 0 -78 -31 -10 -55 34 -101 68 -73 21 17 19 30 -4 30
-10 0 -21 7 -25 15 -4 12 4 15 39 15 l45 0 0 -49 0 -48 -57 -1 c-32 0 -65 4
-75 9 -26 14 -41 79 -27 119 19 52 94 73 136 38z m248 2 c0 -9 -11 -16 -27
-18 -28 -3 -28 -4 -28 -78 0 -59 -3 -74 -15 -74 -12 0 -15 15 -15 75 0 73 -1
75 -24 75 -14 0 -28 5 -31 10 -14 22 9 31 73 28 52 -2 67 -6 67 -18z m1520 0
c20 -16 19 -64 -1 -84 -8 -9 -29 -16 -45 -16 -27 0 -29 -3 -29 -35 0 -28 -4
-35 -20 -35 -18 0 -20 7 -20 88 0 49 3 92 8 96 10 11 89 1 107 -14z m493 -63
l3 -77 39 0 c29 0 40 -4 40 -15 0 -12 -13 -15 -60 -15 l-60 0 0 88 c0 49 3 92
7 96 18 18 28 -7 31 -77z m-248 57 c0 -9 9 -18 20 -21 23 -6 22 -28 -1 -28 -9
0 -15 -14 -17 -42 -3 -38 -1 -43 17 -43 12 0 21 -7 21 -15 0 -10 -10 -15 -30
-15 -34 0 -50 23 -50 72 0 19 -5 39 -11 45 -8 8 -6 18 6 37 19 29 45 35 45 10z
m398 -1 c-2 -10 3 -18 12 -18 8 0 16 -8 18 -18 3 -13 -1 -17 -14 -15 -10 2
-18 -4 -20 -17 -5 -35 7 -65 27 -65 10 0 19 -5 19 -10 0 -16 -27 -23 -55 -16
-22 6 -25 12 -25 54 0 26 -5 53 -10 58 -15 15 11 64 33 64 11 0 17 -6 15 -17z
m-1015 -45 c-6 -45 -24 -68 -55 -68 -10 0 -18 -4 -18 -10 0 -5 12 -10 26 -10
36 0 64 -17 64 -40 0 -42 -84 -66 -125 -36 -16 12 -18 18 -8 37 17 37 23 71
14 88 -5 9 -5 26 0 39 6 17 16 22 44 22 19 0 35 5 35 10 0 6 6 10 14 10 11 0
13 -10 9 -42z m-610 21 c44 4 57 -14 57 -81 0 -51 -2 -59 -17 -56 -14 2 -19
15 -21 56 -3 43 -6 52 -21 52 -23 0 -31 -19 -31 -71 0 -32 -3 -39 -20 -39 -18
0 -20 7 -20 69 0 68 9 87 35 73 5 -4 23 -5 38 -3z m745 -81 c-16 -46 -36 -91
-45 -100 -20 -22 -63 -24 -63 -3 0 8 6 15 13 15 37 1 39 16 13 89 -31 86 -31
81 -8 81 13 0 22 -12 31 -40 14 -48 27 -51 36 -10 7 33 32 63 44 55 5 -2 -5
-42 -21 -87z m323 36 c7 -24 16 -44 19 -44 3 0 12 20 19 45 15 50 21 57 39 46
10 -6 7 -23 -11 -72 -20 -53 -28 -64 -47 -64 -19 0 -27 11 -47 63 -13 35 -21
67 -18 72 12 19 34 -3 46 -46z m-1483 13 c18 -36 9 -47 -39 -47 -28 0 -39 -4
-36 -12 2 -8 19 -12 41 -11 37 2 44 -5 24 -25 -17 -17 -68 -15 -90 5 -23 21
-24 80 -1 105 26 29 84 21 101 -15z m150 10 c3 -15 -2 -17 -38 -11 l-41 7 3
-39 c2 -32 7 -40 26 -42 12 -2 22 1 22 7 0 6 7 11 15 11 18 0 20 -21 3 -38
-17 -17 -68 -15 -90 5 -23 21 -24 80 -1 105 23 25 96 22 101 -5z m476 1 c36
-51 5 -118 -54 -118 -45 0 -74 34 -67 77 8 49 24 63 68 63 28 0 42 -6 53 -22z
m246 3 c15 -29 12 -87 -6 -105 -20 -21 -73 -20 -96 1 -23 20 -24 85 -2 107 23
23 91 21 104 -3z m-1410 -36 c0 -11 -11 -15 -40 -15 -29 0 -40 4 -40 15 0 11
11 15 40 15 29 0 40 -4 40 -15z m2285 -65 c0 -8 -8 -16 -17 -18 -13 -2 -18 3
-18 18 0 15 5 20 18 18 9 -2 17 -10 17 -18z m563 3 c5 -17 -26 -29 -40 -15 -6
6 -7 15 -3 22 9 14 37 9 43 -7z m-1810 -220 c-3 -53 -5 -57 -30 -60 -52 -7
-63 70 -12 83 13 3 24 12 24 20 0 8 5 14 10 14 7 0 10 -22 8 -57z m504 -7 c-2
-33 -8 -54 -14 -50 -5 3 -7 29 -5 58 6 62 5 58 15 53 4 -3 5 -30 4 -61z m263
4 c0 -50 -2 -54 -26 -57 -31 -4 -52 17 -47 49 2 15 11 24 26 26 14 2 22 10 22
24 0 11 5 18 13 16 7 -3 12 -24 12 -58z m-1501 29 l14 -21 11 21 c7 12 16 21
22 21 6 0 5 -9 -2 -22 -7 -13 -15 -36 -19 -53 -7 -37 -23 -36 -31 2 -3 15 -11
38 -18 51 -15 28 3 29 23 1z m401 -4 c1 -11 4 -26 8 -32 14 -22 -11 -53 -43
-53 -30 0 -30 1 -30 56 l0 55 33 -3 c24 -2 32 -8 32 -23z m502 17 c24 -15 26
-59 4 -81 -25 -25 -44 -27 -65 -5 -44 44 9 119 61 86z m243 -7 c0 -8 4 -15 9
-15 5 0 11 7 15 15 3 8 13 15 22 15 15 0 14 -3 -4 -23 l-22 -24 21 -27 c12
-15 18 -30 14 -34 -4 -4 -15 3 -25 16 -22 27 -30 28 -30 2 0 -11 -4 -20 -10
-20 -5 0 -10 25 -10 55 0 30 5 55 10 55 6 0 10 -7 10 -15z m-1039 -15 c23 -13
25 -53 3 -71 -33 -27 -72 33 -44 67 15 17 16 17 41 4z m166 -15 c-10 -7 -17
-24 -17 -39 0 -14 -4 -26 -10 -26 -5 0 -10 18 -10 39 0 29 4 41 18 44 26 6 37
-5 19 -18z m203 15 c0 -3 -7 -14 -15 -24 -8 -11 -15 -29 -15 -40 0 -17 -2 -18
-10 -6 -10 15 -14 63 -5 71 6 7 45 6 45 -1z m70 -19 c0 -9 3 -26 6 -37 5 -19
2 -22 -28 -20 -39 2 -53 34 -19 43 12 3 21 10 21 15 0 5 -9 6 -20 3 -11 -3
-20 -2 -20 4 0 11 29 19 48 13 6 -2 12 -12 12 -21z m90 8 c13 -24 9 -66 -5
-59 -5 3 -10 16 -10 29 0 13 -6 26 -12 28 -9 3 -13 -6 -13 -24 0 -31 -8 -46
-19 -38 -14 8 1 74 18 78 28 8 30 7 41 -14z m338 -47 c8 -2 12 7 12 27 0 16 5
33 10 36 6 4 10 -11 10 -37 0 -38 -3 -44 -22 -45 -30 -3 -48 14 -48 47 0 40
14 47 20 9 3 -18 11 -34 18 -37z m94 46 c-5 -7 -12 -24 -14 -38 -5 -38 -23
-30 -26 12 -3 31 0 37 20 40 29 5 33 2 20 -14z m262 -10 c10 -29 1 -62 -14
-53 -5 3 -10 19 -10 36 0 40 -18 37 -22 -3 -4 -43 -22 -38 -26 6 -3 29 0 35
20 39 35 6 42 3 52 -25z m79 10 c-3 -13 -13 -29 -21 -35 -14 -12 -13 -13 5
-13 11 0 23 -6 26 -14 8 -20 -17 -38 -45 -34 -21 3 -23 7 -19 53 3 51 12 65
43 65 12 0 15 -6 11 -22z m187 -22 c0 -30 -23 -50 -49 -41 -23 7 -34 31 -26
56 12 38 75 26 75 -15z m130 -8 c0 -23 -4 -37 -10 -33 -5 3 -10 19 -10 36 0
40 -18 37 -22 -3 -2 -18 -7 -33 -13 -33 -5 0 -11 15 -13 33 -4 43 -22 41 -22
-3 0 -19 -4 -35 -10 -35 -5 0 -10 18 -10 39 0 40 0 40 43 43 61 4 67 1 67 -44z
m-1560 11 c0 -38 24 -35 28 4 5 41 24 32 20 -10 -3 -37 -21 -49 -54 -36 -16 6
-20 73 -4 73 6 0 10 -14 10 -31z m610 -38 c0 -11 -4 -23 -10 -26 -6 -4 -10 5
-10 19 0 14 5 26 10 26 6 0 10 -9 10 -19z"/>
<path d="M5826 9998 c-3 -29 -14 -124 -24 -211 -10 -86 -16 -160 -13 -162 2
-3 33 -5 68 -5 200 0 470 -57 639 -136 209 -96 355 -219 539 -452 22 -28 44
-51 49 -52 16 0 -1 124 -28 200 -15 41 -44 104 -66 140 l-40 65 27 3 c33 4
232 -92 323 -156 98 -69 205 -177 264 -267 69 -105 102 -164 110 -197 4 -16
12 -28 19 -28 15 1 272 249 264 256 -3 3 -49 0 -104 -6 -175 -21 -291 10 -328
87 -28 58 -12 170 40 289 13 29 20 56 15 59 -5 3 -26 -1 -47 -9 -92 -36 -193
-59 -259 -60 -61 -1 -76 3 -111 26 -68 45 -78 79 -78 258 0 112 5 175 18 227
9 40 17 80 17 89 0 10 -39 -24 -97 -86 -218 -230 -364 -285 -467 -174 -37 41
-90 147 -116 232 -12 39 -26 75 -31 78 -5 3 -21 -16 -36 -42 -47 -80 -115
-166 -146 -184 -42 -26 -90 -33 -139 -20 -60 17 -147 109 -198 210 -22 44 -44
80 -49 80 -5 0 -12 -24 -15 -52z"/>
<path d="M8295 7395 c-264 -51 -390 -85 -390 -105 0 -19 109 -93 275 -187 74
-42 146 -84 160 -94 126 -87 474 -287 528 -304 21 -6 23 -5 13 13 -6 11 -74
77 -152 148 -169 152 -215 212 -264 342 -52 134 -82 202 -92 201 -4 0 -39 -7
-78 -14z"/>
<path d="M4247 6293 c-4 -3 -7 -285 -7 -625 0 -488 3 -618 13 -618 22 0 221
124 311 194 110 86 296 268 296 289 0 21 -20 65 -104 222 -73 137 -149 255
-224 343 -89 106 -259 222 -285 195z"/>
<path d="M8335 1281 c-10 -34 4 -63 28 -59 18 2 22 10 22 38 0 28 -4 36 -22
38 -14 2 -23 -3 -28 -17z"/>
<path d="M7520 1314 c0 -21 4 -25 23 -22 14 2 23 11 25 26 3 18 -1 22 -22 22
-21 0 -26 -5 -26 -26z"/>
<path d="M7157 1304 c-14 -14 -7 -35 11 -32 9 2 17 10 17 17 0 16 -18 25 -28
15z"/>
<path d="M7147 1183 c-15 -14 -6 -23 23 -23 20 0 30 5 30 15 0 15 -40 21 -53
8z"/>
<path d="M6120 1290 c0 -5 11 -10 25 -10 14 0 25 5 25 10 0 6 -11 10 -25 10
-14 0 -25 -4 -25 -10z"/>
<path d="M6744 1286 c-3 -8 -4 -25 -2 -38 2 -17 9 -23 28 -23 22 0 25 4 25 35
0 29 -4 36 -23 38 -13 2 -24 -3 -28 -12z"/>
<path d="M6987 1280 c-9 -34 3 -60 28 -60 25 0 40 35 29 64 -9 23 -51 20 -57
-4z"/>
<path d="M6644 985 c-3 -8 -3 -19 1 -25 11 -18 25 -11 25 15 0 27 -17 34 -26
10z"/>
<path d="M7417 993 c-13 -12 -7 -43 8 -43 9 0 15 9 15 25 0 24 -10 32 -23 18z"/>
<path d="M6320 1010 c0 -5 7 -10 15 -10 8 0 15 5 15 10 0 6 -7 10 -15 10 -8 0
-15 -4 -15 -10z"/>
<path d="M6320 965 c0 -8 7 -15 15 -15 8 0 15 7 15 15 0 8 -7 15 -15 15 -8 0
-15 -7 -15 -15z"/>
<path d="M6813 1004 c-7 -20 9 -49 28 -49 22 0 18 59 -4 63 -9 2 -20 -4 -24
-14z"/>
<path d="M6044 986 c-6 -17 2 -36 17 -36 12 0 12 37 -1 45 -6 3 -13 -1 -16 -9z"/>
<path d="M6470 960 c0 -5 5 -10 10 -10 6 0 10 5 10 10 0 6 -4 10 -10 10 -5 0
-10 -4 -10 -10z"/>
<path d="M7338 923 c7 -3 16 -2 19 1 4 3 -2 6 -13 5 -11 0 -14 -3 -6 -6z"/>
<path d="M7517 994 c-11 -11 -8 -44 3 -44 15 0 24 30 13 41 -5 5 -12 6 -16 3z"/>
</g>
</svg>
